<svg xmlns="http://www.w3.org/2000/svg" viewBox="0 0 128 128"><path fill="#2496ED" d="M124.8 52.1c-2.8-1.9-9.2-2.6-14.1-1.7-.6-4.7-3.2-8.8-8-12.4l-2.7-1.8-1.8 2.7c-2.3 3.5-3 9.3-2.6 13.7-1.9-1.1-5.6-2.5-10.5-2.4H4.4L4 52.8c-.6 12.3 3.8 24.5 10.9 31.8 7.3 7.5 18.2 11.4 32.1 11.4 30.5 0 53.1-14.1 63.8-39.8 4.2.1 13.2.2 17.8-8.4l.9-1.7-4.7-4zm-80.2-6.9h-9.9v9.9h9.9v-9.9zm12.5 0h-9.9v9.9h9.9v-9.9zm12.5 0h-9.9v9.9h9.9v-9.9zm12.5 0h-9.9v9.9h9.9v-9.9zm-50-12.5h-9.9v9.9h9.9v-9.9zm12.5 0h-9.9v9.9h9.9v-9.9zm12.5 0h-9.9v9.9h9.9v-9.9zm12.5 12.5h-9.9v9.9h9.9v-9.9z"/></svg>
