<svg xmlns="http://www.w3.org/2000/svg" viewBox="0 0 128 128"><path fill="#F34F29" d="M124.7 58.5L69.5 3.3c-3.1-3.1-8.2-3.1-11.3 0l-11.2 11.2 14.2 14.2c3.3-1.1 7-.4 9.6 2.2 2.6 2.6 3.3 6.4 2.1 9.7l13.7 13.7c3.3-1.2 7.1-.5 9.7 2.1 3.7 3.7 3.7 9.6 0 13.3-3.7 3.7-9.6 3.7-13.3 0-2.7-2.7-3.4-6.7-2-10L67.7 46.5v32.9c.9.5 1.8 1.1 2.6 1.9 3.7 3.7 3.7 9.6 0 13.3-3.7 3.7-9.6 3.7-13.3 0-3.7-3.7-3.7-9.6 0-13.3 1-.9 2.1-1.7 3.3-2.2V46c-1.2-.5-2.3-1.2-3.3-2.2-2.7-2.7-3.4-6.8-1.9-10.1L41.5 20.1 3.3 58.3c-3.1 3.1-3.1 8.2 0 11.3l55.2 55.2c3.1 3.1 8.2 3.1 11.3 0l54.9-54.9c3.1-3.2 3.1-8.3 0-11.4z"/></svg>
