<svg xmlns="http://www.w3.org/2000/svg" viewBox="0 0 128 128"><path fill="#fff" d="M64 5.1C31.5 5.1 5.1 31.5 5.1 64c0 26 16.9 48.1 40.2 55.9 2.9.5 4-1.3 4-2.8v-9.8c-16.3 3.5-19.7-7.9-19.7-7.9-2.7-6.8-6.5-8.6-6.5-8.6-5.3-3.6.4-3.5.4-3.5 5.9.4 9 6 9 6 5.2 8.9 13.7 6.3 17 4.8.5-3.8 2-6.3 3.7-7.8-13-1.5-26.6-6.5-26.6-28.9 0-6.4 2.3-11.6 6-15.7-.6-1.5-2.6-7.4.6-15.5 0 0 4.9-1.6 16 6 4.6-1.3 9.6-1.9 14.5-1.9s9.9.6 14.5 1.9c11.1-7.5 16-6 16-6 3.2 8.1 1.2 14 .6 15.5 3.7 4.1 6 9.3 6 15.7 0 22.5-13.7 27.4-26.7 28.9 2.1 1.8 4 5.4 4 10.9v16.2c0 1.5 1.1 3.4 4 2.8C106.1 112.1 123 89.9 123 64c0-32.5-26.5-58.9-59-58.9z"/></svg>
