<svg xmlns="http://www.w3.org/2000/svg" viewBox="0 0 128 128"><path fill="#E0234E" d="M75.8 20.7c-1.6-.8-3.3-1.2-5-.9 1.9 1.3 2.9 3.5 2.7 5.7L73 29c-.4 2.9-1.9 5.5-4.1 7.3-2.9 2.4-6.6 3.5-10.3 3-4-.5-7.5-2.7-9.8-5.9l-.3-.5c.2 1.3.7 2.6 1.5 3.7 3.2 4.7 9 7 14.7 5.7 5.7-1.3 10-5.9 10.8-11.7l.5-3.5c.4-2.6-.4-5.3-2.2-7.1 2.2 1.5 3.7 3.9 4 6.5l-.5 3.5c-1 7.5-6.4 13.6-13.8 15.3-7.5 1.7-15.1-1.5-19.3-8l-.3-.5c.3 2.1 1.1 4.1 2.3 5.9 4.6 6.8 12.8 9.9 20.7 7.7 7.9-2.2 13.6-9.3 14-17.5l.2-3.5c.2-2.9-.9-5.7-3-7.7z"/><path fill="#E0234E" d="M103.9 55.6c-6-9.8-17.4-14.7-28.6-12.2-4.7 1.1-9 3.5-12.4 7-3.2-6.8-9.2-11.8-16.3-13.8-7.2-2-14.8-.4-20.6 4.3C19.7 46.2 16.5 55 18 63.6c.5 2.7 1.5 5.3 3 7.6-1.2-1.1-2.2-2.4-3-3.7-2-3.2-3.1-6.9-3-10.7.2-8.6 5.2-16.4 13-20.1 7.7-3.7 16.8-2.6 23.5 2.9 2 1.6 3.8 3.5 5.2 5.7 1.6-4.2 4.4-7.8 8-10.4 6.3-4.5 14.5-5.4 21.7-2.3 7.2 3.1 12.2 9.8 13.2 17.5.4 3.3 0 6.6-1.2 9.7 2.1-5.2 2.4-11 .5-16.3z"/><path fill="#E0234E" d="M110.8 79.8c-3.2 5.4-8.8 9-15.1 9.7-4.6.5-9.2-.6-13.1-3.2l-.6-.4c1.6 1.9 3.6 3.5 5.8 4.7 5.7 3 12.4 3.2 18.3.4 5.9-2.8 10.1-8.3 11.1-14.8.5-3.2.1-6.5-1-9.5 1 4.4.5 9.1-1.6 13.1.7-1 1.3-2 1.8-3l-5.6 2.4v.6z"/></svg>
