<svg xmlns="http://www.w3.org/2000/svg" viewBox="0 0 128 128"><path fill="#336791" d="M93.8 18.6C85.3 10.1 73.7 5.3 61.7 5.3c-12 0-23.6 4.8-32.1 13.3C21.1 27.1 16.3 38.7 16.3 50.7s4.8 23.6 13.3 32.1l34.1 34.1 34.1-34.1c8.5-8.5 13.3-20.1 13.3-32.1 0-12-4.8-23.6-13.3-32.1z"/><path fill="#fff" d="M61.7 15c-9.8 0-19.2 3.9-26.1 10.8C28.7 32.7 24.8 42.1 24.8 51.9s3.9 19.2 10.8 26.1l26.1 26.1 26.1-26.1c6.9-6.9 10.8-16.3 10.8-26.1s-3.9-19.2-10.8-26.1C80.9 18.9 71.5 15 61.7 15zm0 8c7.6 0 14.9 3 20.3 8.4 5.4 5.4 8.4 12.7 8.4 20.3S87.4 65 82 70.4L61.7 90.7 41.4 70.4C36 65 33 57.7 33 50.1s3-14.9 8.4-20.3C46.8 24.4 54.1 23 61.7 23z"/><circle cx="61.7" cy="51.9" r="14" fill="#336791"/><circle cx="61.7" cy="51.9" r="8" fill="#fff"/></svg>
