<svg xmlns="http://www.w3.org/2000/svg" viewBox="0 0 128 128"><path fill="#38BDF8" d="M64 16c-17.1 0-27.8 8.5-32 25.6 6.4-8.5 13.9-11.7 22.4-9.6 4.9 1.2 8.3 4.7 12.1 8.6 6.2 6.4 13.4 13.8 29.1 13.8 17.1 0 27.8-8.5 32-25.6-6.4 8.5-13.9 11.7-22.4 9.6-4.9-1.2-8.3-4.7-12.1-8.6C86.9 23.4 79.7 16 64 16zm-32 38.4c-17.1 0-27.8 8.5-32 25.6 6.4-8.5 13.9-11.7 22.4-9.6 4.9 1.2 8.3 4.7 12.1 8.6C40.7 85.4 47.9 92.8 63.6 92.8c17.1 0 27.8-8.5 32-25.6-6.4 8.5-13.9 11.7-22.4 9.6-4.9-1.2-8.3-4.7-12.1-8.6-6.2-6.4-13.4-13.8-29.1-13.8z"/></svg>
